<svg width="300" height="270" viewBox="0 0 300 270" xmlns="http://www.w3.org/2000/svg">
  <!-- Concept D3: taller, closer-together tubes; chained OHLC bars (open = prior close); bar 2 close at 60% -->
  <path d="M35,50 L35,205.0 A25.0,25.0 0 0 0 85,205.0 L85,50" fill="none" stroke="#cc6a3c" stroke-width="10" stroke-linecap="round" stroke-linejoin="round"/>
<line x1="60.0" y1="160" x2="60.0" y2="200" stroke="#cc6a3c" stroke-width="7" stroke-linecap="round"/>
  <line x1="50.0" y1="190" x2="60.0" y2="190" stroke="#cc6a3c" stroke-width="7" stroke-linecap="round"/>
  <line x1="60.0" y1="170" x2="70.0" y2="170" stroke="#cc6a3c" stroke-width="7" stroke-linecap="round"/>
<path d="M115,50 L115,205.0 A25.0,25.0 0 0 0 165,205.0 L165,50" fill="none" stroke="#cc6a3c" stroke-width="10" stroke-linecap="round" stroke-linejoin="round"/>
<line x1="140.0" y1="90" x2="140.0" y2="200" stroke="#cc6a3c" stroke-width="7" stroke-linecap="round"/>
  <line x1="130.0" y1="170" x2="140.0" y2="170" stroke="#cc6a3c" stroke-width="7" stroke-linecap="round"/>
  <line x1="140.0" y1="134.0" x2="150.0" y2="134.0" stroke="#cc6a3c" stroke-width="7" stroke-linecap="round"/>
<path d="M195,50 L195,205.0 A25.0,25.0 0 0 0 245,205.0 L245,50" fill="none" stroke="#cc6a3c" stroke-width="10" stroke-linecap="round" stroke-linejoin="round"/>
<line x1="220.0" y1="20" x2="220.0" y2="200" stroke="#cc6a3c" stroke-width="7" stroke-linecap="round"/>
  <line x1="210.0" y1="134.0" x2="220.0" y2="134.0" stroke="#cc6a3c" stroke-width="7" stroke-linecap="round"/>
  <line x1="220.0" y1="35" x2="230.0" y2="35" stroke="#cc6a3c" stroke-width="7" stroke-linecap="round"/>
<circle cx="238.0" cy="10" r="5" fill="#cc6a3c"/>
</svg>
